<svg width="18" height="22" viewBox="0 0 18 22" fill="none" xmlns="http://www.w3.org/2000/svg">
    <path
        d="M9.82012 1C9.82012 0.734784 9.71476 0.48043 9.52722 0.292893C9.33969 0.105357 9.08533 0 8.82012 0C8.5549 0 8.30055 0.105357 8.11301 0.292893C7.92547 0.48043 7.82012 0.734784 7.82012 1V1.962L7.16612 1.616C7.05003 1.55461 6.92298 1.51668 6.79224 1.50439C6.66149 1.49209 6.52961 1.50567 6.40411 1.54435C6.27861 1.58302 6.16196 1.64604 6.06081 1.72979C5.95967 1.81355 5.87601 1.91641 5.81462 2.0325C5.75322 2.14859 5.7153 2.27563 5.703 2.40638C5.69071 2.53712 5.70429 2.66901 5.74296 2.79451C5.78164 2.92001 5.84465 3.03666 5.92841 3.1378C6.01217 3.23895 6.11503 3.32261 6.23112 3.384L7.82012 4.224V6.126C7.11617 6.30818 6.47519 6.67879 5.96612 7.198L4.31812 6.246L4.38512 4.45C4.39493 4.18492 4.29904 3.92679 4.11853 3.73241C3.93803 3.53803 3.6877 3.42331 3.42262 3.4135C3.15753 3.40369 2.89941 3.49958 2.70503 3.68008C2.51065 3.86059 2.39593 4.11092 2.38612 4.376L2.35912 5.115L1.52612 4.635C1.41228 4.56457 1.28546 4.51772 1.15318 4.49721C1.0209 4.47671 0.88585 4.48297 0.756034 4.51563C0.626218 4.54829 0.50428 4.60667 0.397449 4.68733C0.290617 4.76799 0.201067 4.86928 0.134106 4.98518C0.0671454 5.10109 0.0241372 5.22927 0.00763135 5.36211C-0.0088745 5.49494 0.00145804 5.62975 0.0380161 5.75852C0.0745742 5.88729 0.136614 6.00741 0.220457 6.11176C0.304301 6.21611 0.408241 6.30257 0.526117 6.366L1.35912 6.847L0.732117 7.241C0.513426 7.38473 0.35979 7.60846 0.304179 7.86417C0.248568 8.11989 0.295414 8.38722 0.434664 8.60879C0.573914 8.83036 0.794471 8.98851 1.049 9.04931C1.30354 9.11011 1.57176 9.06871 1.79612 8.934L3.31812 7.978L4.96512 8.929C4.77039 9.62972 4.77039 10.3703 4.96512 11.071L3.31812 12.021L1.79612 11.066C1.57176 10.9313 1.30354 10.8899 1.049 10.9507C0.794471 11.0115 0.573914 11.1696 0.434664 11.3912C0.295414 11.6128 0.248568 11.8801 0.304179 12.1358C0.35979 12.3915 0.513426 12.6153 0.732117 12.759L1.35912 13.153L0.526117 13.633C0.412327 13.6987 0.312584 13.7861 0.232582 13.8903C0.152581 13.9945 0.0938884 14.1135 0.0598557 14.2403C0.0258231 14.3672 0.0171168 14.4996 0.0342339 14.6298C0.0513509 14.7601 0.0939563 14.8857 0.159617 14.9995C0.225278 15.1133 0.312709 15.213 0.416917 15.293C0.521126 15.373 0.640071 15.4317 0.766963 15.4658C0.893854 15.4998 1.02621 15.5085 1.15646 15.4914C1.28672 15.4743 1.41233 15.4317 1.52612 15.366L2.35812 14.885L2.38612 15.625C2.39104 15.7563 2.42177 15.8853 2.47655 16.0046C2.53133 16.124 2.60909 16.2314 2.70538 16.3208C2.80168 16.4101 2.91462 16.4796 3.03777 16.5253C3.16092 16.5709 3.29186 16.5919 3.42312 16.587C3.55437 16.5821 3.68337 16.5513 3.80275 16.4966C3.92214 16.4418 4.02956 16.364 4.11889 16.2677C4.20822 16.1714 4.27771 16.0585 4.32339 15.9353C4.36907 15.8122 4.39004 15.6813 4.38512 15.55L4.31812 13.754L5.96612 12.802C6.47519 13.3212 7.11617 13.6918 7.82012 13.874V15.776L6.23112 16.616C5.99667 16.74 5.82107 16.952 5.74296 17.2055C5.66485 17.4589 5.69063 17.733 5.81462 17.9675C5.93861 18.202 6.15065 18.3775 6.40411 18.4557C6.65756 18.5338 6.93167 18.508 7.16612 18.384L7.82012 18.038V19C7.82012 19.2652 7.92547 19.5196 8.11301 19.7071C8.30055 19.8946 8.5549 20 8.82012 20C9.08533 20 9.33969 19.8946 9.52722 19.7071C9.71476 19.5196 9.82012 19.2652 9.82012 19V18.038L10.4741 18.384C10.7086 18.508 10.9827 18.5338 11.2361 18.4557C11.4896 18.3775 11.7016 18.202 11.8256 17.9675C11.9496 17.733 11.9754 17.4589 11.8973 17.2055C11.8192 16.952 11.6436 16.74 11.4091 16.616L9.82012 15.776V13.874C10.524 13.6921 11.1649 13.3218 11.6741 12.803L13.3221 13.754L13.2551 15.55C13.2502 15.6813 13.2712 15.8122 13.3168 15.9353C13.3625 16.0585 13.432 16.1714 13.5213 16.2677C13.6107 16.364 13.7181 16.4418 13.8375 16.4966C13.9569 16.5513 14.0859 16.5821 14.2171 16.587C14.3484 16.5919 14.4793 16.5709 14.6025 16.5253C14.7256 16.4796 14.8386 16.4101 14.9349 16.3208C15.0311 16.2314 15.1089 16.124 15.1637 16.0046C15.2185 15.8853 15.2492 15.7563 15.2541 15.625L15.2811 14.885L16.1141 15.366C16.2279 15.4327 16.3537 15.4762 16.4844 15.4941C16.6151 15.512 16.748 15.5038 16.8755 15.4701C17.003 15.4364 17.1225 15.3778 17.2273 15.2977C17.3321 15.2176 17.4199 15.1175 17.4859 15.0033C17.5518 14.8891 17.5945 14.763 17.6115 14.6322C17.6285 14.5014 17.6195 14.3686 17.5849 14.2413C17.5504 14.114 17.491 13.9949 17.4102 13.8906C17.3294 13.7864 17.2288 13.6992 17.1141 13.634L16.2821 13.154L16.9081 12.76C17.1328 12.6189 17.2921 12.3944 17.3512 12.1357C17.4103 11.8771 17.3642 11.6056 17.2231 11.381C17.082 11.1564 16.8575 10.997 16.5989 10.9379C16.3402 10.8788 16.0688 10.9249 15.8441 11.066L14.3221 12.022L12.6751 11.072C12.87 10.371 12.87 9.63004 12.6751 8.929L14.3221 7.978L15.8441 8.934C16.0688 9.0751 16.3402 9.12117 16.5989 9.0621C16.8575 9.00303 17.082 8.84364 17.2231 8.619C17.3642 8.39436 17.4103 8.12287 17.3512 7.86426C17.2921 7.60565 17.1328 7.38109 16.9081 7.24L16.2811 6.847L17.1141 6.366C17.2288 6.30082 17.3294 6.2136 17.4102 6.10937C17.491 6.00515 17.5504 5.88597 17.5849 5.75869C17.6195 5.63142 17.6285 5.49857 17.6115 5.36779C17.5945 5.23701 17.5518 5.11088 17.4859 4.99667C17.4199 4.88246 17.3321 4.78242 17.2273 4.70231C17.1225 4.62221 17.003 4.56361 16.8755 4.5299C16.748 4.49619 16.6151 4.48804 16.4844 4.5059C16.3537 4.52377 16.2279 4.5673 16.1141 4.634L15.2811 5.114L15.2541 4.375C15.2492 4.24374 15.2185 4.11474 15.1637 3.99536C15.1089 3.87598 15.0311 3.76856 14.9349 3.67923C14.8386 3.5899 14.7256 3.52041 14.6025 3.47473C14.4793 3.42905 14.3484 3.40808 14.2171 3.413C14.0859 3.41792 13.9569 3.44865 13.8375 3.50343C13.7181 3.55821 13.6107 3.63597 13.5213 3.73226C13.432 3.82856 13.3625 3.9415 13.3168 4.06465C13.2712 4.1878 13.2502 4.31874 13.2551 4.45L13.3221 6.246L11.6741 7.197C11.1649 6.67816 10.524 6.30789 9.82012 6.126V4.224L11.4091 3.384C11.6436 3.26001 11.8192 3.04797 11.8973 2.79451C11.9754 2.54105 11.9496 2.26695 11.8256 2.0325C11.7016 1.79805 11.4896 1.62245 11.2361 1.54435C10.9827 1.46624 10.7086 1.49201 10.4741 1.616L9.82012 1.962V1Z"
        fill="white" />
</svg>
    